<svg xmlns="http://www.w3.org/2000/svg" width="1122" height="831" viewBox="0 0 1122 831">

<g transform="translate(0 0) scale(1)"><path d="M 0.00 826.00 L 61.00 827.00 L 64.00 830.00 L 103.00 830.00 L 106.00 827.00 L 241.00 827.00 L 245.00 830.00 L 314.00 694.00 L 314.00 688.00 L 323.00 673.00 L 323.00 667.00 L 79.00 666.00 L 75.00 670.00 L 0.00 820.00 Z M 150.00 517.00 L 154.00 521.00 L 184.00 521.00 L 187.00 518.00 L 214.00 518.00 L 217.00 521.00 L 247.00 521.00 L 250.00 518.00 L 259.00 518.00 L 262.00 521.00 L 853.00 521.00 L 856.00 518.00 L 877.00 518.00 L 880.00 515.00 L 889.00 515.00 L 892.00 512.00 L 907.00 509.00 L 916.00 503.00 L 922.00 503.00 L 934.00 497.00 L 940.00 491.00 L 949.00 488.00 L 958.00 479.00 L 961.00 479.00 L 995.00 445.00 L 995.00 442.00 L 1004.00 433.00 L 1016.00 409.00 L 1016.00 403.00 L 1025.00 385.00 L 1031.00 379.00 L 1031.00 373.00 L 1061.00 316.00 L 1061.00 310.00 L 1109.00 217.00 L 1109.00 211.00 L 1112.00 208.00 L 1112.00 202.00 L 1118.00 190.00 L 1118.00 181.00 L 1121.00 178.00 L 1121.00 118.00 L 1118.00 115.00 L 1118.00 106.00 L 1109.00 88.00 L 1109.00 82.00 L 1094.00 61.00 L 1094.00 58.00 L 1060.00 24.00 L 1030.00 9.00 L 1024.00 9.00 L 1021.00 6.00 L 1012.00 6.00 L 1009.00 3.00 L 991.00 3.00 L 988.00 0.00 L 418.00 0.00 L 414.00 4.00 L 378.00 76.00 L 378.00 82.00 L 372.00 88.00 L 372.00 94.00 L 360.00 118.00 L 354.00 124.00 L 348.00 136.00 L 348.00 142.00 L 336.00 163.00 L 337.00 170.00 L 922.00 170.00 L 928.00 173.00 L 939.00 187.00 L 939.00 199.00 L 936.00 202.00 L 936.00 208.00 L 873.00 334.00 L 853.00 351.00 L 844.00 351.00 L 841.00 354.00 L 232.00 354.00 L 228.00 358.00 Z" fill="#E65318" fill-rule="evenodd" clip-rule="evenodd"/></g>
</svg>