<svg xmlns="http://www.w3.org/2000/svg" width="521.46" height="104" viewBox="0 0 521.46 104">

<g transform="translate(0 -7.105427357601002e-15) scale(0.12515042117930206)"><path d="M 0.00 826.00 L 61.00 827.00 L 64.00 830.00 L 103.00 830.00 L 106.00 827.00 L 241.00 827.00 L 245.00 830.00 L 314.00 694.00 L 314.00 688.00 L 323.00 673.00 L 323.00 667.00 L 79.00 666.00 L 75.00 670.00 L 0.00 820.00 Z M 150.00 517.00 L 154.00 521.00 L 184.00 521.00 L 187.00 518.00 L 214.00 518.00 L 217.00 521.00 L 247.00 521.00 L 250.00 518.00 L 259.00 518.00 L 262.00 521.00 L 853.00 521.00 L 856.00 518.00 L 877.00 518.00 L 880.00 515.00 L 889.00 515.00 L 892.00 512.00 L 907.00 509.00 L 916.00 503.00 L 922.00 503.00 L 934.00 497.00 L 940.00 491.00 L 949.00 488.00 L 958.00 479.00 L 961.00 479.00 L 995.00 445.00 L 995.00 442.00 L 1004.00 433.00 L 1016.00 409.00 L 1016.00 403.00 L 1025.00 385.00 L 1031.00 379.00 L 1031.00 373.00 L 1061.00 316.00 L 1061.00 310.00 L 1109.00 217.00 L 1109.00 211.00 L 1112.00 208.00 L 1112.00 202.00 L 1118.00 190.00 L 1118.00 181.00 L 1121.00 178.00 L 1121.00 118.00 L 1118.00 115.00 L 1118.00 106.00 L 1109.00 88.00 L 1109.00 82.00 L 1094.00 61.00 L 1094.00 58.00 L 1060.00 24.00 L 1030.00 9.00 L 1024.00 9.00 L 1021.00 6.00 L 1012.00 6.00 L 1009.00 3.00 L 991.00 3.00 L 988.00 0.00 L 418.00 0.00 L 414.00 4.00 L 378.00 76.00 L 378.00 82.00 L 372.00 88.00 L 372.00 94.00 L 360.00 118.00 L 354.00 124.00 L 348.00 136.00 L 348.00 142.00 L 336.00 163.00 L 337.00 170.00 L 922.00 170.00 L 928.00 173.00 L 939.00 187.00 L 939.00 199.00 L 936.00 202.00 L 936.00 208.00 L 873.00 334.00 L 853.00 351.00 L 844.00 351.00 L 841.00 354.00 L 232.00 354.00 L 228.00 358.00 Z" fill="#E65318" fill-rule="evenodd" clip-rule="evenodd"/></g>
<g transform="translate(182.4187725631769 25.0) scale(0.18120805369127516)"><path d="M 1541.00 36.00 L 1526.00 65.00 L 1521.00 88.00 L 1521.00 210.00 L 1526.00 233.00 L 1531.00 246.00 L 1544.00 265.00 L 1558.00 278.00 L 1582.00 291.00 L 1609.00 297.00 L 1783.00 297.00 L 1806.00 292.00 L 1821.00 286.00 L 1839.00 273.00 L 1854.00 256.00 L 1863.00 240.00 L 1868.00 225.00 L 1870.00 212.00 L 1869.00 78.00 L 1863.00 57.00 L 1857.00 45.00 L 1849.00 34.00 L 1827.00 15.00 L 1805.00 5.00 L 1778.00 0.00 L 1612.00 0.00 L 1588.00 5.00 L 1567.00 14.00 L 1554.00 23.00 Z M 1599.00 77.00 L 1609.00 68.00 L 1619.00 63.00 L 1637.00 61.00 L 1764.00 61.00 L 1777.00 64.00 L 1784.00 68.00 L 1794.00 78.00 L 1799.00 87.00 L 1803.00 107.00 L 1803.00 194.00 L 1800.00 210.00 L 1794.00 220.00 L 1784.00 229.00 L 1776.00 233.00 L 1760.00 236.00 L 1622.00 235.00 L 1606.00 228.00 L 1594.00 215.00 L 1589.00 199.00 L 1589.00 102.00 L 1593.00 87.00 Z M 1161.00 29.00 L 1151.00 43.00 L 1145.00 58.00 L 1141.00 78.00 L 1141.00 105.00 L 1145.00 124.00 L 1152.00 139.00 L 1160.00 150.00 L 1172.00 161.00 L 1192.00 172.00 L 1214.00 178.00 L 1376.00 178.00 L 1387.00 182.00 L 1396.00 191.00 L 1399.00 198.00 L 1399.00 214.00 L 1395.00 223.00 L 1390.00 229.00 L 1382.00 234.00 L 1372.00 236.00 L 1153.00 235.00 L 1149.00 238.00 L 1149.00 295.00 L 1151.00 297.00 L 1391.00 297.00 L 1413.00 292.00 L 1426.00 286.00 L 1439.00 277.00 L 1450.00 266.00 L 1457.00 256.00 L 1464.00 240.00 L 1468.00 220.00 L 1468.00 189.00 L 1462.00 167.00 L 1457.00 157.00 L 1449.00 146.00 L 1437.00 135.00 L 1420.00 125.00 L 1405.00 120.00 L 1380.00 117.00 L 1231.00 117.00 L 1223.00 114.00 L 1213.00 104.00 L 1210.00 95.00 L 1210.00 84.00 L 1213.00 76.00 L 1219.00 69.00 L 1233.00 62.00 L 1456.00 61.00 L 1458.00 58.00 L 1457.00 1.00 L 1227.00 0.00 L 1203.00 4.00 L 1189.00 9.00 L 1176.00 16.00 Z M 792.00 2.00 L 792.00 211.00 L 796.00 232.00 L 801.00 245.00 L 810.00 260.00 L 826.00 277.00 L 842.00 287.00 L 854.00 292.00 L 876.00 297.00 L 1103.00 296.00 L 1104.00 242.00 L 1102.00 236.00 L 895.00 235.00 L 887.00 233.00 L 874.00 225.00 L 865.00 214.00 L 861.00 200.00 L 861.00 2.00 L 858.00 0.00 L 795.00 0.00 Z M 385.00 2.00 L 384.00 209.00 L 390.00 237.00 L 397.00 252.00 L 407.00 266.00 L 419.00 277.00 L 433.00 286.00 L 447.00 292.00 L 468.00 297.00 L 651.00 297.00 L 670.00 293.00 L 687.00 286.00 L 702.00 276.00 L 718.00 258.00 L 728.00 239.00 L 734.00 216.00 L 734.00 2.00 L 732.00 0.00 L 668.00 0.00 L 666.00 2.00 L 666.00 200.00 L 659.00 220.00 L 650.00 229.00 L 642.00 234.00 L 630.00 236.00 L 486.00 235.00 L 478.00 233.00 L 465.00 225.00 L 459.00 218.00 L 454.00 208.00 L 452.00 193.00 L 452.00 2.00 L 449.00 0.00 L 387.00 0.00 Z M 0.00 295.00 L 2.00 297.00 L 67.00 297.00 L 69.00 295.00 L 69.00 200.00 L 70.00 197.00 L 74.00 194.00 L 251.00 194.00 L 264.00 192.00 L 279.00 187.00 L 299.00 175.00 L 310.00 164.00 L 317.00 154.00 L 323.00 142.00 L 329.00 120.00 L 328.00 70.00 L 323.00 54.00 L 309.00 31.00 L 299.00 21.00 L 279.00 9.00 L 265.00 4.00 L 242.00 0.00 L 1.00 1.00 L 0.00 58.00 L 3.00 62.00 L 236.00 62.00 L 247.00 67.00 L 255.00 75.00 L 260.00 87.00 L 260.00 107.00 L 255.00 119.00 L 246.00 128.00 L 234.00 133.00 L 2.00 134.00 L 0.00 137.00 Z" fill="#161616" fill-rule="evenodd" clip-rule="evenodd"/></g>
</svg>